<svg width="24" height="24" viewBox="0 0 24 24" fill="none" xmlns="http://www.w3.org/2000/svg">
<g clip-path="url(#clip0_2:1734)">
<path fill-rule="evenodd" clip-rule="evenodd" d="M12 2C8.68629 2 6 4.68629 6 8C6 11.3137 8.68629 14 12 14C13.1639 14 14.2503 13.6686 15.1702 13.0951C15.2198 13.0558 15.2734 13.021 15.3305 12.9915C16.9401 11.9155 18 10.0815 18 8C18 4.68629 15.3137 2 12 2ZM16.8616 14.3539C18.7696 12.8917 20 10.5895 20 8C20 3.58172 16.4183 0 12 0C7.58172 0 4 3.58172 4 8C4 10.59 5.23082 12.8926 7.13947 14.3547L6.00867 22.8684C5.95812 23.249 6.12999 23.625 6.45093 23.8358C6.77187 24.0467 7.18519 24.0551 7.51446 23.8575L12 21.1662L16.4855 23.8575C16.8147 24.0551 17.228 24.0467 17.5489 23.8359C17.8699 23.6251 18.0418 23.2491 17.9913 22.8685L16.8616 14.3539ZM14.9861 15.4241C14.0634 15.7956 13.0556 16 12 16C10.9448 16 9.93731 15.7957 9.01494 15.4245L8.26441 21.0752L11.4855 19.1425C11.8022 18.9525 12.1978 18.9525 12.5145 19.1425L15.7359 21.0754L14.9861 15.4241Z" fill="#2F363D"/>
</g>
<defs>
<clipPath id="clip0_2:1734">
<rect width="24" height="24" fill="white"/>
</clipPath>
</defs>
</svg>
