<svg width="96" height="96" viewBox="0 0 96 96" fill="none" xmlns="http://www.w3.org/2000/svg">
<g filter="url(#filter0_d)">
<path d="M24 82.5L72 82.5C80.2843 82.5 87 75.7843 87 67.5L87 40.5L9 40.5L9 67.5C9 75.7843 15.7157 82.5 24 82.5Z" fill="#F3DFB7"/>
<path fill-rule="evenodd" clip-rule="evenodd" d="M14.1703 78.8302C11.8842 76.1976 10.5005 72.7604 10.5005 69L10.5005 42L87.0005 42V40.5L9.00049 40.5L9.00049 67.5C9.00049 72.0239 11.0031 76.08 14.1703 78.8302Z" fill="#FFF3DC"/>
<path d="M72 22.5L24 22.5C15.7157 22.5 9 29.2157 9 37.5L9 40.5L87 40.5V37.5C87 29.2157 80.2843 22.5 72 22.5Z" fill="#686666"/>
<path fill-rule="evenodd" clip-rule="evenodd" d="M24 22.5H72C76.5239 22.5 80.58 24.5027 83.3302 27.6698C80.6976 25.3837 77.2604 24 73.5 24H25.5C17.2157 24 10.5 30.7157 10.5 39V40.5H9V37.5C9 29.2157 15.7157 22.5 24 22.5Z" fill="#999494"/>
<path d="M24 19.5L72 19.5C81.9411 19.5 90 27.5589 90 37.5V40.5H87V37.5C87 29.2157 80.2843 22.5 72 22.5L24 22.5C15.7157 22.5 9 29.2157 9 37.5L9 40.5H6L6 37.5C6 27.5589 14.0589 19.5 24 19.5Z" fill="#433D3D"/>
<path d="M72 85.5L24 85.5C14.0589 85.5 6 77.4411 6 67.5L6 40.5L9 40.5L9 67.5C9 75.7843 15.7157 82.5 24 82.5L72 82.5C80.2843 82.5 87 75.7843 87 67.5L87 40.5L90 40.5L90 67.5C90 77.4411 81.9411 85.5 72 85.5Z" fill="#826E47"/>
<path d="M24 52.5C24 54.1569 22.6569 55.5 21 55.5C19.3431 55.5 18 54.1569 18 52.5C18 50.8431 19.3431 49.5 21 49.5C22.6569 49.5 24 50.8431 24 52.5Z" fill="#F3DFB7"/>
<path fill-rule="evenodd" clip-rule="evenodd" d="M27 52.5C27 55.8137 24.3137 58.5 21 58.5C17.6863 58.5 15 55.8137 15 52.5C15 49.1863 17.6863 46.5 21 46.5C24.3137 46.5 27 49.1863 27 52.5ZM21 55.5C22.6569 55.5 24 54.1569 24 52.5C24 50.8431 22.6569 49.5 21 49.5C19.3431 49.5 18 50.8431 18 52.5C18 54.1569 19.3431 55.5 21 55.5Z" fill="#826E47"/>
<path d="M24 70.5C24 72.1569 22.6569 73.5 21 73.5C19.3431 73.5 18 72.1569 18 70.5C18 68.8431 19.3431 67.5 21 67.5C22.6569 67.5 24 68.8431 24 70.5Z" fill="#F3DFB7"/>
<path fill-rule="evenodd" clip-rule="evenodd" d="M27 70.5C27 73.8137 24.3137 76.5 21 76.5C17.6863 76.5 15 73.8137 15 70.5C15 67.1863 17.6863 64.5 21 64.5C24.3137 64.5 27 67.1863 27 70.5ZM21 73.5C22.6569 73.5 24 72.1569 24 70.5C24 68.8431 22.6569 67.5 21 67.5C19.3431 67.5 18 68.8431 18 70.5C18 72.1569 19.3431 73.5 21 73.5Z" fill="#826E47"/>
<path d="M60 52.5C60 54.1569 58.6569 55.5 57 55.5C55.3431 55.5 54 54.1569 54 52.5C54 50.8431 55.3431 49.5 57 49.5C58.6569 49.5 60 50.8431 60 52.5Z" fill="#F3DFB7"/>
<path fill-rule="evenodd" clip-rule="evenodd" d="M63 52.5C63 55.8137 60.3137 58.5 57 58.5C53.6863 58.5 51 55.8137 51 52.5C51 49.1863 53.6863 46.5 57 46.5C60.3137 46.5 63 49.1863 63 52.5ZM57 55.5C58.6569 55.5 60 54.1569 60 52.5C60 50.8431 58.6569 49.5 57 49.5C55.3431 49.5 54 50.8431 54 52.5C54 54.1569 55.3431 55.5 57 55.5Z" fill="#826E47"/>
<path d="M60 70.5C60 72.1569 58.6569 73.5 57 73.5C55.3431 73.5 54 72.1569 54 70.5C54 68.8431 55.3431 67.5 57 67.5C58.6569 67.5 60 68.8431 60 70.5Z" fill="#F3DFB7"/>
<path fill-rule="evenodd" clip-rule="evenodd" d="M63 70.5C63 73.8137 60.3137 76.5 57 76.5C53.6863 76.5 51 73.8137 51 70.5C51 67.1863 53.6863 64.5 57 64.5C60.3137 64.5 63 67.1863 63 70.5ZM57 73.5C58.6569 73.5 60 72.1569 60 70.5C60 68.8431 58.6569 67.5 57 67.5C55.3431 67.5 54 68.8431 54 70.5C54 72.1569 55.3431 73.5 57 73.5Z" fill="#826E47"/>
<path d="M42 52.5C42 54.1569 40.6569 55.5 39 55.5C37.3431 55.5 36 54.1569 36 52.5C36 50.8431 37.3431 49.5 39 49.5C40.6569 49.5 42 50.8431 42 52.5Z" fill="#F3DFB7"/>
<path fill-rule="evenodd" clip-rule="evenodd" d="M45 52.5C45 55.8137 42.3137 58.5 39 58.5C35.6863 58.5 33 55.8137 33 52.5C33 49.1863 35.6863 46.5 39 46.5C42.3137 46.5 45 49.1863 45 52.5ZM39 55.5C40.6569 55.5 42 54.1569 42 52.5C42 50.8431 40.6569 49.5 39 49.5C37.3431 49.5 36 50.8431 36 52.5C36 54.1569 37.3431 55.5 39 55.5Z" fill="#826E47"/>
<path d="M42 70.5C42 72.1569 40.6569 73.5 39 73.5C37.3431 73.5 36 72.1569 36 70.5C36 68.8431 37.3431 67.5 39 67.5C40.6569 67.5 42 68.8431 42 70.5Z" fill="#F3DFB7"/>
<path fill-rule="evenodd" clip-rule="evenodd" d="M45 70.5C45 73.8137 42.3137 76.5 39 76.5C35.6863 76.5 33 73.8137 33 70.5C33 67.1863 35.6863 64.5 39 64.5C42.3137 64.5 45 67.1863 45 70.5ZM39 73.5C40.6569 73.5 42 72.1569 42 70.5C42 68.8431 40.6569 67.5 39 67.5C37.3431 67.5 36 68.8431 36 70.5C36 72.1569 37.3431 73.5 39 73.5Z" fill="#826E47"/>
<path d="M78 52.5C78 54.1569 76.6569 55.5 75 55.5C73.3431 55.5 72 54.1569 72 52.5C72 50.8431 73.3431 49.5 75 49.5C76.6569 49.5 78 50.8431 78 52.5Z" fill="#F3DFB7"/>
<path fill-rule="evenodd" clip-rule="evenodd" d="M81 52.5C81 55.8137 78.3137 58.5 75 58.5C71.6863 58.5 69 55.8137 69 52.5C69 49.1863 71.6863 46.5 75 46.5C78.3137 46.5 81 49.1863 81 52.5ZM75 55.5C76.6569 55.5 78 54.1569 78 52.5C78 50.8431 76.6569 49.5 75 49.5C73.3431 49.5 72 50.8431 72 52.5C72 54.1569 73.3431 55.5 75 55.5Z" fill="#826E47"/>
<path d="M78 70.5C78 72.1569 76.6569 73.5 75 73.5C73.3431 73.5 72 72.1569 72 70.5C72 68.8431 73.3431 67.5 75 67.5C76.6569 67.5 78 68.8431 78 70.5Z" fill="#F55B54"/>
<path fill-rule="evenodd" clip-rule="evenodd" d="M81 70.5C81 73.8137 78.3137 76.5 75 76.5C71.6863 76.5 69 73.8137 69 70.5C69 67.1863 71.6863 64.5 75 64.5C78.3137 64.5 81 67.1863 81 70.5ZM75 73.5C76.6569 73.5 78 72.1569 78 70.5C78 68.8431 76.6569 67.5 75 67.5C73.3431 67.5 72 68.8431 72 70.5C72 72.1569 73.3431 73.5 75 73.5Z" fill="#A83C37"/>
<path fill-rule="evenodd" clip-rule="evenodd" d="M23.7349 51.2651C23.3583 51.0948 22.9402 51 22.5 51C20.8431 51 19.5 52.3431 19.5 54C19.5 54.4402 19.5948 54.8583 19.7651 55.2349C18.7242 54.7641 18 53.7167 18 52.5C18 50.8431 19.3431 49.5 21 49.5C22.2167 49.5 23.2641 50.2242 23.7349 51.2651Z" fill="#FFF3DC"/>
<path fill-rule="evenodd" clip-rule="evenodd" d="M23.7349 69.2651C23.3583 69.0948 22.9402 69 22.5 69C20.8431 69 19.5 70.3431 19.5 72C19.5 72.4402 19.5948 72.8583 19.7651 73.2349C18.7242 72.7641 18 71.7167 18 70.5C18 68.8431 19.3431 67.5 21 67.5C22.2167 67.5 23.2641 68.2242 23.7349 69.2651Z" fill="#FFF3DC"/>
<path fill-rule="evenodd" clip-rule="evenodd" d="M41.7349 51.2651C41.3583 51.0948 40.9402 51 40.5 51C38.8431 51 37.5 52.3431 37.5 54C37.5 54.4402 37.5948 54.8583 37.7651 55.2349C36.7242 54.7641 36 53.7167 36 52.5C36 50.8431 37.3431 49.5 39 49.5C40.2167 49.5 41.2641 50.2242 41.7349 51.2651Z" fill="#FFF3DC"/>
<path fill-rule="evenodd" clip-rule="evenodd" d="M41.7349 69.2651C41.3583 69.0948 40.9402 69 40.5 69C38.8431 69 37.5 70.3431 37.5 72C37.5 72.4402 37.5948 72.8583 37.7651 73.2349C36.7242 72.7641 36 71.7167 36 70.5C36 68.8431 37.3431 67.5 39 67.5C40.2167 67.5 41.2641 68.2242 41.7349 69.2651Z" fill="#FFF3DC"/>
<path fill-rule="evenodd" clip-rule="evenodd" d="M59.7349 51.2651C59.3583 51.0948 58.9402 51 58.5 51C56.8431 51 55.5 52.3431 55.5 54C55.5 54.4402 55.5948 54.8583 55.7651 55.2349C54.7242 54.7641 54 53.7167 54 52.5C54 50.8431 55.3431 49.5 57 49.5C58.2167 49.5 59.2641 50.2242 59.7349 51.2651Z" fill="#FFF3DC"/>
<path fill-rule="evenodd" clip-rule="evenodd" d="M77.7349 51.2651C77.3583 51.0948 76.9402 51 76.5 51C74.8431 51 73.5 52.3431 73.5 54C73.5 54.4402 73.5948 54.8583 73.7651 55.2349C72.7242 54.7641 72 53.7167 72 52.5C72 50.8431 73.3431 49.5 75 49.5C76.2167 49.5 77.2641 50.2242 77.7349 51.2651Z" fill="#FFF3DC"/>
<path fill-rule="evenodd" clip-rule="evenodd" d="M77.7349 69.2651C77.3583 69.0948 76.9402 69 76.5 69C74.8431 69 73.5 70.3431 73.5 72C73.5 72.4402 73.5948 72.8583 73.7651 73.2349C72.7242 72.7641 72 71.7167 72 70.5C72 68.8431 73.3431 67.5 75 67.5C76.2167 67.5 77.2641 68.2242 77.7349 69.2651Z" fill="#FF8B86"/>
<path fill-rule="evenodd" clip-rule="evenodd" d="M59.7349 69.2651C59.3583 69.0948 58.9402 69 58.5 69C56.8431 69 55.5 70.3431 55.5 72C55.5 72.4402 55.5948 72.8583 55.7651 73.2349C54.7242 72.7641 54 71.7167 54 70.5C54 68.8431 55.3431 67.5 57 67.5C58.2167 67.5 59.2641 68.2242 59.7349 69.2651Z" fill="#FFF3DC"/>
<path d="M31.5 25.5C31.5 28.8137 28.8137 31.5 25.5 31.5C22.1863 31.5 19.5 28.8137 19.5 25.5C19.5 22.1863 22.1863 19.5 25.5 19.5C28.8137 19.5 31.5 22.1863 31.5 25.5Z" fill="#433D3D"/>
<path d="M46.5 25.5C46.5 28.8137 43.8137 31.5 40.5 31.5C37.1863 31.5 34.5 28.8137 34.5 25.5C34.5 22.1863 37.1863 19.5 40.5 19.5C43.8137 19.5 46.5 22.1863 46.5 25.5Z" fill="#433D3D"/>
<path d="M61.5 25.5C61.5 28.8137 58.8137 31.5 55.5 31.5C52.1863 31.5 49.5 28.8137 49.5 25.5C49.5 22.1863 52.1863 19.5 55.5 19.5C58.8137 19.5 61.5 22.1863 61.5 25.5Z" fill="#433D3D"/>
<path d="M76.5 25.5C76.5 28.8137 73.8137 31.5 70.5 31.5C67.1863 31.5 64.5 28.8137 64.5 25.5C64.5 22.1863 67.1863 19.5 70.5 19.5C73.8137 19.5 76.5 22.1863 76.5 25.5Z" fill="#433D3D"/>
<path fill-rule="evenodd" clip-rule="evenodd" d="M70.5 13.5C72.1569 13.5 73.5 14.8431 73.5 16.5V25.5C73.5 27.1569 72.1569 28.5 70.5 28.5C68.8431 28.5 67.5 27.1569 67.5 25.5V16.5C67.5 14.8431 68.8431 13.5 70.5 13.5Z" fill="#292323"/>
<path fill-rule="evenodd" clip-rule="evenodd" d="M55.5 13.5C57.1569 13.5 58.5 14.8431 58.5 16.5V25.5C58.5 27.1569 57.1569 28.5 55.5 28.5C53.8431 28.5 52.5 27.1569 52.5 25.5V16.5C52.5 14.8431 53.8431 13.5 55.5 13.5Z" fill="#292323"/>
<path fill-rule="evenodd" clip-rule="evenodd" d="M40.5 13.5C42.1569 13.5 43.5 14.8431 43.5 16.5V25.5C43.5 27.1569 42.1569 28.5 40.5 28.5C38.8431 28.5 37.5 27.1569 37.5 25.5V16.5C37.5 14.8431 38.8431 13.5 40.5 13.5Z" fill="#292323"/>
<path fill-rule="evenodd" clip-rule="evenodd" d="M25.5 13.5C27.1569 13.5 28.5 14.8431 28.5 16.5V25.5C28.5 27.1569 27.1569 28.5 25.5 28.5C23.8431 28.5 22.5 27.1569 22.5 25.5V16.5C22.5 14.8431 23.8431 13.5 25.5 13.5Z" fill="#292323"/>
<path fill-rule="evenodd" clip-rule="evenodd" d="M25.5 16.5C26.3284 16.5 27 17.1716 27 18V21C27 21.8284 26.3284 22.5 25.5 22.5C24.6716 22.5 24 21.8284 24 21V18C24 17.1716 24.6716 16.5 25.5 16.5Z" fill="#4E4C4C"/>
<path fill-rule="evenodd" clip-rule="evenodd" d="M40.5 16.5C41.3284 16.5 42 17.1716 42 18V21C42 21.8284 41.3284 22.5 40.5 22.5C39.6716 22.5 39 21.8284 39 21V18C39 17.1716 39.6716 16.5 40.5 16.5Z" fill="#4E4C4C"/>
<path fill-rule="evenodd" clip-rule="evenodd" d="M55.5 16.5C56.3284 16.5 57 17.1716 57 18V21C57 21.8284 56.3284 22.5 55.5 22.5C54.6716 22.5 54 21.8284 54 21V18C54 17.1716 54.6716 16.5 55.5 16.5Z" fill="#4E4C4C"/>
<path fill-rule="evenodd" clip-rule="evenodd" d="M70.5 16.5C71.3284 16.5 72 17.1716 72 18V21C72 21.8284 71.3284 22.5 70.5 22.5C69.6716 22.5 69 21.8284 69 21V18C69 17.1716 69.6716 16.5 70.5 16.5Z" fill="#4E4C4C"/>
<path d="M27 18C27 18.8284 26.3284 19.5 25.5 19.5C24.6716 19.5 24 18.8284 24 18C24 17.1716 24.6716 16.5 25.5 16.5C26.3284 16.5 27 17.1716 27 18Z" fill="#989494"/>
<path d="M42 18C42 18.8284 41.3284 19.5 40.5 19.5C39.6716 19.5 39 18.8284 39 18C39 17.1716 39.6716 16.5 40.5 16.5C41.3284 16.5 42 17.1716 42 18Z" fill="#989494"/>
<path d="M57 18C57 18.8284 56.3284 19.5 55.5 19.5C54.6716 19.5 54 18.8284 54 18C54 17.1716 54.6716 16.5 55.5 16.5C56.3284 16.5 57 17.1716 57 18Z" fill="#989494"/>
<path d="M72 18C72 18.8284 71.3284 19.5 70.5 19.5C69.6716 19.5 69 18.8284 69 18C69 17.1716 69.6716 16.5 70.5 16.5C71.3284 16.5 72 17.1716 72 18Z" fill="#989494"/>
<rect x="9" y="37.5" width="78" height="3" fill="#433D3D"/>
</g>
<defs>
<filter id="filter0_d" x="0" y="0" width="100" height="100" filterUnits="userSpaceOnUse" color-interpolation-filters="sRGB">
<feFlood flood-opacity="0" result="BackgroundImageFix"/>
<feColorMatrix in="SourceAlpha" type="matrix" values="0 0 0 0 0 0 0 0 0 0 0 0 0 0 0 0 0 0 127 0" result="hardAlpha"/>
<feOffset dx="4" dy="4"/>
<feColorMatrix type="matrix" values="0 0 0 0 0 0 0 0 0 0 0 0 0 0 0 0 0 0 0.2 0"/>
<feBlend mode="normal" in2="BackgroundImageFix" result="effect1_dropShadow"/>
<feBlend mode="normal" in="SourceGraphic" in2="effect1_dropShadow" result="shape"/>
</filter>
</defs>
</svg>
