<svg width="24" height="24" viewBox="0 0 24 24" fill="none" xmlns="http://www.w3.org/2000/svg">
<path fill-rule="evenodd" clip-rule="evenodd" d="M15.663 3.77342C13.8902 2.98352 11.9096 2.78783 10.0166 3.21555C8.12351 3.64326 6.41942 4.67145 5.15845 6.14678C3.89749 7.62211 3.14721 9.46552 3.01951 11.4021C2.89181 13.3387 3.39354 15.2646 4.44987 16.8928C5.50619 18.5209 7.06051 19.764 8.88102 20.4365C10.7015 21.1091 12.6907 21.1752 14.5518 20.6249C16.413 20.0746 18.0464 18.9375 19.2084 17.3831C20.3705 15.8286 20.9989 13.9402 21 11.9994V11.08C21 10.5277 21.4477 10.08 22 10.08C22.5523 10.08 23 10.5277 23 11.08V12C22.9986 14.3721 22.2305 16.6807 20.8103 18.5806C19.39 20.4804 17.3936 21.8703 15.1189 22.5429C12.8442 23.2154 10.413 23.1347 8.18792 22.3126C5.96285 21.4906 4.06312 19.9713 2.77206 17.9813C1.48099 15.9914 0.86777 13.6374 1.02384 11.2705C1.17992 8.90358 2.09693 6.65052 3.63811 4.84734C5.17929 3.04416 7.26206 1.78748 9.57581 1.26472C11.8896 0.74196 14.3103 0.981129 16.477 1.94656C16.9815 2.17134 17.2082 2.76252 16.9834 3.26699C16.7587 3.77146 16.1675 3.9982 15.663 3.77342ZM22.7067 3.2925C23.0975 3.68282 23.0978 4.31599 22.7074 4.70671L12.7075 14.7167C12.5199 14.9044 12.2655 15.0099 12.0002 15.01C11.7349 15.01 11.4805 14.9047 11.2929 14.7171L8.29288 11.7171C7.90236 11.3265 7.90236 10.6934 8.29288 10.3028C8.68341 9.91232 9.31657 9.91232 9.7071 10.3028L11.9996 12.5954L21.2925 3.2932C21.6829 2.90248 22.316 2.90217 22.7067 3.2925Z" fill="#2F363D"/>
</svg>
