<svg width="24" height="24" viewBox="0 0 24 24" fill="none" xmlns="http://www.w3.org/2000/svg">
<path fill-rule="evenodd" clip-rule="evenodd" d="M12 3C7.02947 3 3.00003 7.02944 3.00003 12C3.00003 16.9706 7.02947 21 12 21C16.9706 21 21 16.9706 21 12C21 7.02944 16.9706 3 12 3ZM1.00003 12C1.00003 5.92487 5.9249 1 12 1C18.0752 1 23 5.92487 23 12C23 18.0751 18.0752 23 12 23C5.9249 23 1.00003 18.0751 1.00003 12ZM12 4.99998C12.5523 4.99998 13 5.4477 13 5.99998V11.382L16.4472 13.1056C16.9412 13.3525 17.1414 13.9532 16.8944 14.4472C16.6475 14.9412 16.0468 15.1414 15.5528 14.8944L11.5528 12.8944C11.214 12.725 11 12.3788 11 12V5.99998C11 5.4477 11.4477 4.99998 12 4.99998Z" fill="#2F363D"/>
</svg>
