<svg width="24" height="24" viewBox="0 0 24 24" fill="none" xmlns="http://www.w3.org/2000/svg">
<path fill-rule="evenodd" clip-rule="evenodd" d="M4 3.00003C3.44772 3.00003 3 3.44775 3 4.00003C3 4.55232 3.44772 5.00003 4 5.00003C4.55228 5.00003 5 4.55232 5 4.00003C5 3.44775 4.55228 3.00003 4 3.00003ZM1 4.00003C1 2.34318 2.34315 1.00003 4 1.00003C5.65685 1.00003 7 2.34318 7 4.00003C7 5.65688 5.65685 7.00003 4 7.00003C2.34315 7.00003 1 5.65688 1 4.00003ZM16 9.00003C14.6739 9.00003 13.4021 9.52682 12.4644 10.4645C11.5268 11.4022 11 12.6739 11 14V20H13V14C13 13.2044 13.316 12.4413 13.8786 11.8787C14.4413 11.3161 15.2043 11 16 11C16.7956 11 17.5587 11.3161 18.1213 11.8787C18.6839 12.4413 19 13.2044 19 14V20H21V14C21 12.6739 20.4732 11.4022 19.5355 10.4645C18.5978 9.52682 17.326 9.00003 16 9.00003ZM11.0502 9.05028C12.363 7.73753 14.1435 7.00003 16 7.00003C17.8565 7.00003 19.637 7.73753 20.9497 9.05028C22.2625 10.363 23 12.1435 23 14V21C23 21.5523 22.5523 22 22 22H18C17.4477 22 17 21.5523 17 21V14C17 13.7348 16.8946 13.4805 16.7071 13.2929C16.5195 13.1054 16.2652 13 16 13C15.7348 13 15.4804 13.1054 15.2929 13.2929C15.1053 13.4805 15 13.7348 15 14V21C15 21.5523 14.5523 22 14 22H9.99997C9.44768 22 8.99997 21.5523 8.99997 21V14C8.99997 12.1435 9.73746 10.363 11.0502 9.05028ZM1 9.00001C1 8.44773 1.44772 8.00001 2 8.00001H6C6.55229 8.00001 7 8.44773 7 9.00001V21C7 21.5523 6.55229 22 6 22H2C1.44772 22 1 21.5523 1 21V9.00001ZM3 10V20H5V10H3Z" fill="#2F363D"/>
</svg>
