<svg width="96" height="96" viewBox="0 0 96 96" fill="none" xmlns="http://www.w3.org/2000/svg">
<g filter="url(#filter0_d)">
<path d="M17.2208 64.8182C17.6935 63.7152 18.7781 63 19.9782 63H76.0218C77.2219 63 78.3065 63.7152 78.7793 64.8182L85.2078 79.8182C86.0562 81.7978 84.6041 84 82.4504 84H13.5496C11.3959 84 9.94378 81.7978 10.7922 79.8182L17.2208 64.8182Z" fill="#686666"/>
<path fill-rule="evenodd" clip-rule="evenodd" d="M19.978 60H76.0216C78.4218 60 80.591 61.4304 81.5365 63.6365L87.9651 78.6365C89.6619 82.5957 86.7577 87 82.4502 87H13.5494C9.24193 87 6.33776 82.5957 8.03456 78.6365L14.4631 63.6365C15.4086 61.4304 17.5778 60 19.978 60ZM19.978 63C18.7779 63 17.6933 63.7152 17.2206 64.8182L10.792 79.8182C9.94359 81.7978 11.3957 84 13.5494 84H82.4502C84.6039 84 86.056 81.7978 85.2076 79.8182L78.7791 64.8182C78.3063 63.7152 77.2217 63 76.0216 63H19.978Z" fill="#433D3D"/>
<path fill-rule="evenodd" clip-rule="evenodd" d="M10.6432 80.2518C10.1582 82.1058 11.5522 84 13.5496 84H82.4504C84.4479 84 85.8419 82.1058 85.3568 80.2516C85.0286 81.5051 83.898 82.5 82.4504 82.5H13.5496C12.102 82.5 10.9714 81.5052 10.6432 80.2518Z" fill="#999494"/>
<path d="M25.5 75C25.5 75.8284 24.8284 76.5 24 76.5C23.1716 76.5 22.5 75.8284 22.5 75C22.5 74.1716 23.1716 73.5 24 73.5C24.8284 73.5 25.5 74.1716 25.5 75Z" fill="#686666"/>
<path fill-rule="evenodd" clip-rule="evenodd" d="M24 73.5C23.1716 73.5 22.5 74.1716 22.5 75C22.5 75.8284 23.1716 76.5 24 76.5C24.8284 76.5 25.5 75.8284 25.5 75C25.5 74.1716 24.8284 73.5 24 73.5ZM28.5 75C28.5 77.4853 26.4853 79.5 24 79.5C21.5147 79.5 19.5 77.4853 19.5 75C19.5 72.5147 21.5147 70.5 24 70.5C26.4853 70.5 28.5 72.5147 28.5 75Z" fill="#433D3D"/>
<path d="M37.5 75C37.5 75.8284 36.8284 76.5 36 76.5C35.1716 76.5 34.5 75.8284 34.5 75C34.5 74.1716 35.1716 73.5 36 73.5C36.8284 73.5 37.5 74.1716 37.5 75Z" fill="#686666"/>
<path fill-rule="evenodd" clip-rule="evenodd" d="M36 73.5C35.1716 73.5 34.5 74.1716 34.5 75C34.5 75.8284 35.1716 76.5 36 76.5C36.8284 76.5 37.5 75.8284 37.5 75C37.5 74.1716 36.8284 73.5 36 73.5ZM40.5 75C40.5 77.4853 38.4853 79.5 36 79.5C33.5147 79.5 31.5 77.4853 31.5 75C31.5 72.5147 33.5147 70.5 36 70.5C38.4853 70.5 40.5 72.5147 40.5 75Z" fill="#433D3D"/>
<path d="M61.5 75C61.5 75.8284 60.8284 76.5 60 76.5C59.1716 76.5 58.5 75.8284 58.5 75C58.5 74.1716 59.1716 73.5 60 73.5C60.8284 73.5 61.5 74.1716 61.5 75Z" fill="#686666"/>
<path fill-rule="evenodd" clip-rule="evenodd" d="M60 73.5C59.1716 73.5 58.5 74.1716 58.5 75C58.5 75.8284 59.1716 76.5 60 76.5C60.8284 76.5 61.5 75.8284 61.5 75C61.5 74.1716 60.8284 73.5 60 73.5ZM64.5 75C64.5 77.4853 62.4853 79.5 60 79.5C57.5147 79.5 55.5 77.4853 55.5 75C55.5 72.5147 57.5147 70.5 60 70.5C62.4853 70.5 64.5 72.5147 64.5 75Z" fill="#433D3D"/>
<path d="M49.5 75C49.5 75.8284 48.8284 76.5 48 76.5C47.1716 76.5 46.5 75.8284 46.5 75C46.5 74.1716 47.1716 73.5 48 73.5C48.8284 73.5 49.5 74.1716 49.5 75Z" fill="#F55B54"/>
<path fill-rule="evenodd" clip-rule="evenodd" d="M48 73.5C47.1716 73.5 46.5 74.1716 46.5 75C46.5 75.8284 47.1716 76.5 48 76.5C48.8284 76.5 49.5 75.8284 49.5 75C49.5 74.1716 48.8284 73.5 48 73.5ZM52.5 75C52.5 77.4853 50.4853 79.5 48 79.5C45.5147 79.5 43.5 77.4853 43.5 75C43.5 72.5147 45.5147 70.5 48 70.5C50.4853 70.5 52.5 72.5147 52.5 75Z" fill="#A83C37"/>
<path d="M73.5 75C73.5 75.8284 72.8284 76.5 72 76.5C71.1716 76.5 70.5 75.8284 70.5 75C70.5 74.1716 71.1716 73.5 72 73.5C72.8284 73.5 73.5 74.1716 73.5 75Z" fill="#686666"/>
<path fill-rule="evenodd" clip-rule="evenodd" d="M72 73.5C71.1716 73.5 70.5 74.1716 70.5 75C70.5 75.8284 71.1716 76.5 72 76.5C72.8284 76.5 73.5 75.8284 73.5 75C73.5 74.1716 72.8284 73.5 72 73.5ZM76.5 75C76.5 77.4853 74.4853 79.5 72 79.5C69.5147 79.5 67.5 77.4853 67.5 75C67.5 72.5147 69.5147 70.5 72 70.5C74.4853 70.5 76.5 72.5147 76.5 75Z" fill="#433D3D"/>
<path fill-rule="evenodd" clip-rule="evenodd" d="M24 67.5C24 66.6716 24.6716 66 25.5 66H70.5C71.3284 66 72 66.6716 72 67.5C72 68.3284 71.3284 69 70.5 69H25.5C24.6716 69 24 68.3284 24 67.5Z" fill="#433D3D"/>
<path d="M15 24C15 17.3726 20.3726 12 27 12H69C75.6274 12 81 17.3726 81 24V51C81 54.3137 78.3137 57 75 57H21C17.6863 57 15 54.3137 15 51V24Z" fill="#F3DFB7"/>
<path fill-rule="evenodd" clip-rule="evenodd" d="M27 9H69C77.2843 9 84 15.7157 84 24V51C84 55.9706 79.9706 60 75 60H21C16.0294 60 12 55.9706 12 51V24C12 15.7157 18.7157 9 27 9ZM27 12C20.3726 12 15 17.3726 15 24V51C15 54.3137 17.6863 57 21 57H75C78.3137 57 81 54.3137 81 51V24C81 17.3726 75.6274 12 69 12H27Z" fill="#826E47"/>
<path fill-rule="evenodd" clip-rule="evenodd" d="M27 12C20.3726 12 15 17.3726 15 24V51C15 53.04 16.018 54.8421 17.5738 55.9262C16.8969 54.9548 16.5 53.7737 16.5 52.5V25.5C16.5 18.8726 21.8726 13.5 28.5 13.5H70.5C73.4318 13.5 76.1181 14.5514 78.2023 16.2977C76.001 13.6706 72.6956 12 69 12H27Z" fill="#FFF3DC"/>
<path d="M21 24C21 20.6863 23.6863 18 27 18H69C72.3137 18 75 20.6863 75 24V48C75 49.6569 73.6569 51 72 51H24C22.3431 51 21 49.6569 21 48V24Z" fill="#5EE9E0"/>
<path fill-rule="evenodd" clip-rule="evenodd" d="M27 15H69C73.9706 15 78 19.0294 78 24V48C78 51.3137 75.3137 54 72 54H24C20.6863 54 18 51.3137 18 48V24C18 19.0294 22.0294 15 27 15ZM27 18C23.6863 18 21 20.6863 21 24V48C21 49.6569 22.3431 51 24 51H72C73.6569 51 75 49.6569 75 48V24C75 20.6863 72.3137 18 69 18H27Z" fill="#2A9891"/>
<path fill-rule="evenodd" clip-rule="evenodd" d="M27 18C23.6863 18 21 20.6863 21 24V48C21 49.2167 21.7242 50.2641 22.7651 50.7349C22.5948 50.3583 22.5 49.9402 22.5 49.5V25.5C22.5 22.1863 25.1863 19.5 28.5 19.5H70.5C71.7737 19.5 72.9548 19.8969 73.9262 20.5738C72.8421 19.0181 71.04 18 69 18H27Z" fill="#88FDF6"/>
<path fill-rule="evenodd" clip-rule="evenodd" d="M53.6589 24.0016C54.3211 23.9714 54.9246 24.3794 55.1433 25.0052L58.4739 34.5366H63.3369L65.0108 30.2254C65.2417 29.6307 65.8234 29.2471 66.461 29.2692C67.0985 29.2913 67.6524 29.7142 67.8416 30.3234L69.1502 34.5366H70.5C71.3284 34.5366 72 35.2082 72 36.0366C72 36.865 71.3284 37.5366 70.5 37.5366H68.0455C67.3884 37.5366 66.8079 37.109 66.613 36.4815L66.2516 35.3182L65.7619 36.5795C65.5379 37.1565 64.9826 37.5366 64.3636 37.5366H57.4091C56.7714 37.5366 56.2034 37.1334 55.9931 36.5314L53.9659 30.7301L50.6825 43.8638C50.5284 44.4802 50.0027 44.9326 49.3703 44.9932C48.7379 45.0538 48.1359 44.7094 47.8676 44.1335L43.7713 35.3415H39.6957L37.9779 40.8718C37.7895 41.4785 37.2393 41.9007 36.6045 41.9257C35.9697 41.9507 35.388 41.5731 35.1524 40.9831L33.0405 35.6948L31.0234 42.1889C30.8331 42.8016 30.274 43.2255 29.6326 43.2433C28.9912 43.2612 28.4095 42.8691 28.1854 42.2678L26.9128 38.8537H25.5C24.6716 38.8537 24 38.1821 24 37.3537C24 36.5252 24.6716 35.8537 25.5 35.8537H27.9545C28.5809 35.8537 29.1413 36.2429 29.3601 36.8298L29.4618 37.1027L31.4311 30.7624C31.6196 30.1557 32.1698 29.7335 32.8046 29.7085C33.4393 29.6835 34.0211 30.061 34.2567 30.651L36.3686 35.9394L37.1584 33.3965C37.3533 32.7691 37.9339 32.3415 38.5909 32.3415H44.7273C45.3104 32.3415 45.8407 32.6794 46.0869 33.208L48.7989 39.0288L52.2721 25.1362C52.4328 24.4931 52.9967 24.0318 53.6589 24.0016Z" fill="#88FDF6"/>
</g>
<defs>
<filter id="filter0_d" x="0" y="0" width="100" height="100" filterUnits="userSpaceOnUse" color-interpolation-filters="sRGB">
<feFlood flood-opacity="0" result="BackgroundImageFix"/>
<feColorMatrix in="SourceAlpha" type="matrix" values="0 0 0 0 0 0 0 0 0 0 0 0 0 0 0 0 0 0 127 0" result="hardAlpha"/>
<feOffset dx="4" dy="4"/>
<feColorMatrix type="matrix" values="0 0 0 0 0 0 0 0 0 0 0 0 0 0 0 0 0 0 0.2 0"/>
<feBlend mode="normal" in2="BackgroundImageFix" result="effect1_dropShadow"/>
<feBlend mode="normal" in="SourceGraphic" in2="effect1_dropShadow" result="shape"/>
</filter>
</defs>
</svg>
