<svg width="502" height="502" viewBox="0 0 502 502" fill="none" xmlns="http://www.w3.org/2000/svg">
<path d="M303.851 340.34C327.069 307.02 328.026 262.938 306.863 228.661L346.066 189.458C359.103 194.07 373.488 193.756 386.242 188.391C396.125 184.234 397.945 170.821 390.368 163.244L338.536 111.428C330.943 103.836 317.515 105.671 313.358 115.585C307.899 128.575 307.663 143.227 312.526 156.436L273.574 195.388C239.281 174.225 195.215 175.182 161.895 198.4C154.036 203.875 153.392 215.405 160.169 222.182L280.069 342.082C286.846 348.843 298.361 348.2 303.851 340.34Z" fill="#FABD3B"/>
<path d="M98.2661 403.953L203.655 265.307L236.928 298.58L98.2661 403.953Z" fill="#E2E2E2"/>
<path d="M395.89 157.691L344.074 105.875C338.442 100.243 330.348 97.7802 322.504 99.3489C314.99 100.824 309.013 105.64 306.11 112.542C300.541 125.814 299.679 140.45 303.569 154.287L272.272 185.583C235.94 165.895 191.513 168.186 157.393 191.968C151.855 195.811 148.341 201.945 147.729 208.754C147.102 215.813 149.612 222.731 154.6 227.72L193.098 266.217L92.0074 399.231C89.6385 402.353 89.9366 406.745 92.6976 409.522C94.2193 411.044 96.2273 411.813 98.251 411.813C99.9139 411.813 101.577 411.279 103.004 410.212L236.019 309.122L274.516 347.619C279.002 352.106 285.042 354.585 291.348 354.585C292.054 354.585 292.76 354.553 293.482 354.49C300.306 353.879 306.424 350.365 310.268 344.827C334.034 310.722 336.34 266.28 316.652 229.947L348.247 198.353C361.911 202.024 376.296 201.098 389.27 195.623C396.157 192.737 400.957 186.775 402.432 179.261C403.969 171.386 401.537 163.323 395.89 157.691ZM139.321 362.899L204.314 277.386L224.833 297.906L139.321 362.899ZM383.199 181.159C372.265 185.756 360.013 186.069 348.671 182.069C345.831 181.049 342.647 181.771 340.513 183.92L301.31 223.123C298.737 225.696 298.267 229.696 300.181 232.787C319.884 264.711 318.802 305.169 297.404 335.869C295.772 338.207 293.372 338.756 292.101 338.866C289.67 339.101 287.317 338.222 285.607 336.528L243.094 294.015C242.858 293.701 242.749 293.325 242.466 293.042L209.193 259.769C208.911 259.487 208.534 259.377 208.22 259.142L165.707 216.629C164.013 214.934 163.15 212.566 163.37 210.134C163.48 208.848 164.029 206.463 166.366 204.832C182.43 193.631 201.177 187.999 219.97 187.999C237.07 187.999 254.232 192.674 269.433 202.055C272.508 203.953 276.508 203.498 279.097 200.925L318.049 161.989C320.213 159.824 320.919 156.593 319.868 153.737C315.633 142.254 315.884 129.798 320.559 118.629C321.719 115.884 324.151 115.021 325.516 114.754C328.245 114.236 331.038 115.052 332.967 116.982L384.783 168.797C386.697 170.711 387.544 173.551 387.027 176.249C386.776 177.582 385.928 180.014 383.199 181.159Z" fill="#1A4875"/>
</svg>
