<svg width="24" height="24" viewBox="0 0 24 24" fill="none" xmlns="http://www.w3.org/2000/svg">
<g clip-path="url(#clip0_2:2640)">
<path d="M9 21C4.85999 21 1.32 18.24 0.299995 14.28C-0.960005 9.48 1.98 4.56 6.78 3.3C11.34 2.1 15.96 4.68 17.52 9H18C21.3 9 24 11.7 24 15C24 18.3 21.3 21 18 21H9ZM9 4.98C8.39999 4.98 7.86 5.04 7.26 5.22C3.54 6.18 1.26 10.02 2.22 13.74C2.99999 16.86 5.81999 19.02 9 19.02H18C20.22 19.02 22.02 17.22 22.02 15C22.02 12.78 20.22 10.98 18 10.98H16.74C16.26 10.98 15.9 10.68 15.78 10.26C14.94 7.08 12.12 4.98 9 4.98Z" fill="#2F363D"/>
</g>
<defs>
<clipPath id="clip0_2:2640">
<rect width="24" height="24" fill="white"/>
</clipPath>
</defs>
</svg>
